<?xml version="1.0" encoding="UTF-8" standalone="no"?>
<svg
   xmlns:dc="http://purl.org/dc/elements/1.1/"
   xmlns:cc="http://creativecommons.org/ns#"
   xmlns:rdf="http://www.w3.org/1999/02/22-rdf-syntax-ns#"
   xmlns:svg="http://www.w3.org/2000/svg"
   xmlns="http://www.w3.org/2000/svg"
   xmlns:sodipodi="http://sodipodi.sourceforge.net/DTD/sodipodi-0.dtd"
   xmlns:inkscape="http://www.inkscape.org/namespaces/inkscape"
   viewBox="0 0 228.66 39.08"
   version="1.1"
   id="svg78"
   sodipodi:docname="navbar-logo1.svg"
   inkscape:version="0.92.4 (5da689c313, 2019-01-14)">
  <metadata
     id="metadata84">
    <rdf:RDF>
      <cc:Work
         rdf:about="">
        <dc:format>image/svg+xml</dc:format>
        <dc:type
           rdf:resource="http://purl.org/dc/dcmitype/StillImage" />
        <dc:title></dc:title>
      </cc:Work>
    </rdf:RDF>
  </metadata>
  <defs
     id="defs82" />
  <sodipodi:namedview
     pagecolor="#ffffff"
     bordercolor="#666666"
     borderopacity="1"
     objecttolerance="10"
     gridtolerance="10"
     guidetolerance="10"
     inkscape:pageopacity="0"
     inkscape:pageshadow="2"
     inkscape:window-width="1366"
     inkscape:window-height="705"
     id="namedview80"
     showgrid="false"
     inkscape:zoom="3.5729904"
     inkscape:cx="126.47657"
     inkscape:cy="19.540001"
     inkscape:window-x="1912"
     inkscape:window-y="194"
     inkscape:window-maximized="1"
     inkscape:current-layer="svg78" />
  <style
     id="style48">.cls-1{fill:#fed136;}</style>
  <g
     aria-label="GestDoc"
     style="font-style:normal;font-variant:normal;font-weight:normal;font-stretch:normal;font-size:40px;line-height:1.25;font-family:eczar;-inkscape-font-specification:eczar;letter-spacing:0px;word-spacing:0px;fill:#fed136;fill-opacity:1;stroke:none"
     id="text3795"
     transform="translate(17.352412,-83.403526)">
    <path
       d="m 52.03738,71.870766 q -4.21875,2.382812 -9.375,2.382812 -5.996094,0 -9.707031,-3.867187 -3.691406,-3.867188 -3.691406,-10.234375 0,-6.503907 4.101562,-10.664063 4.121094,-4.179687 10.429688,-4.179687 4.570312,0 7.675781,1.484375 v 3.632812 q -3.398438,-2.148437 -8.046875,-2.148437 -4.707031,0 -7.714844,3.242187 -3.007812,3.242188 -3.007812,8.398438 0,5.3125 2.792968,8.359375 2.792969,3.027343 7.578125,3.027343 3.28125,0 5.683594,-1.308593 v -7.851563 h -6.132812 v -2.96875 h 9.414062 z"
       style="font-style:normal;font-variant:normal;font-weight:normal;font-stretch:normal;font-family:'Leelawadee UI';-inkscape-font-specification:'Leelawadee UI';fill:#fed136;fill-opacity:1"
       id="path3797"
       inkscape:connector-curvature="0" />
    <path
       d="M 74.166286,64.585609 H 60.045193 q 0.07813,3.339844 1.796875,5.15625 1.71875,1.816407 4.726562,1.816407 3.378906,0 6.210938,-2.226563 v 3.007813 q -2.636719,1.914062 -6.972657,1.914062 -4.238281,0 -6.660156,-2.714844 -2.421875,-2.734375 -2.421875,-7.675781 0,-4.667969 2.636719,-7.597656 2.65625,-2.949219 6.582031,-2.949219 3.925781,0 6.074219,2.539063 2.148437,2.539062 2.148437,7.050781 z m -3.28125,-2.714843 q -0.01953,-2.773438 -1.347656,-4.316407 -1.308594,-1.542968 -3.652344,-1.542968 -2.265625,0 -3.847656,1.621093 -1.582031,1.621094 -1.953125,4.238282 z"
       style="font-style:normal;font-variant:normal;font-weight:normal;font-stretch:normal;font-family:'Leelawadee UI';-inkscape-font-specification:'Leelawadee UI';fill:#fed136;fill-opacity:1"
       id="path3799"
       inkscape:connector-curvature="0" />
    <path
       d="m 77.81863,73.062172 v -3.4375 q 2.617188,1.933594 5.761719,1.933594 4.21875,0 4.21875,-2.8125 0,-0.800782 -0.371094,-1.347657 -0.351562,-0.566406 -0.976562,-0.996093 -0.605469,-0.429688 -1.445313,-0.761719 -0.820312,-0.351563 -1.777344,-0.722656 -1.328125,-0.527344 -2.34375,-1.054688 -0.996093,-0.546875 -1.679687,-1.210937 -0.664063,-0.683594 -1.015625,-1.542969 -0.332031,-0.859375 -0.332031,-2.011719 0,-1.40625 0.644531,-2.480469 0.644531,-1.09375 1.71875,-1.816406 1.074219,-0.742187 2.441406,-1.113281 1.386719,-0.371094 2.851563,-0.371094 2.597656,0 4.648437,0.898438 v 3.242187 q -2.207031,-1.445312 -5.078125,-1.445312 -0.898437,0 -1.621094,0.214843 -0.722656,0.195313 -1.25,0.566407 -0.507812,0.371093 -0.800781,0.898437 -0.273437,0.507813 -0.273437,1.132813 0,0.78125 0.273437,1.308593 0.292969,0.527344 0.839844,0.9375 0.546875,0.410157 1.328125,0.742188 0.78125,0.332031 1.777344,0.722656 1.328125,0.507813 2.382812,1.054688 1.054688,0.527343 1.796875,1.210937 0.742188,0.664063 1.132813,1.542969 0.410156,0.878906 0.410156,2.089844 0,1.484375 -0.664063,2.578125 -0.644531,1.09375 -1.738281,1.816406 -1.09375,0.722656 -2.519531,1.074219 -1.425781,0.351562 -2.988281,0.351562 -3.085938,0 -5.351563,-1.191406 z"
       style="font-style:normal;font-variant:normal;font-weight:normal;font-stretch:normal;font-family:'Leelawadee UI';-inkscape-font-specification:'Leelawadee UI';fill:#fed136;fill-opacity:1"
       id="path3801"
       inkscape:connector-curvature="0" />
    <path
       d="m 105.26004,73.589516 q -1.13282,0.625 -2.98828,0.625 -5.253911,0 -5.253911,-5.859375 V 56.519203 h -3.4375 v -2.734375 h 3.4375 v -4.882812 l 3.203121,-1.035157 v 5.917969 h 5.03907 v 2.734375 h -5.03907 v 11.269531 q 0,2.011719 0.6836,2.871094 0.68359,0.859375 2.26562,0.859375 1.21094,0 2.08985,-0.664062 z"
       style="font-style:normal;font-variant:normal;font-weight:normal;font-stretch:normal;font-family:'Leelawadee UI';-inkscape-font-specification:'Leelawadee UI';fill:#fed136;fill-opacity:1"
       id="path3803"
       inkscape:connector-curvature="0" />
    <path
       d="M 110.00613,73.784828 V 45.777016 h 7.73438 q 14.80468,0 14.80468,13.652343 0,6.484375 -4.12109,10.429688 -4.10156,3.925781 -10.99609,3.925781 z m 3.28125,-25.039062 v 22.070312 h 4.17969 q 5.50781,0 8.57422,-2.949219 3.0664,-2.949218 3.0664,-8.359375 0,-10.761718 -11.44531,-10.761718 z"
       style="font-style:normal;font-variant:normal;font-weight:normal;font-stretch:normal;font-family:'Leelawadee UI';-inkscape-font-specification:'Leelawadee UI';fill:#fed136;fill-opacity:1"
       id="path3805"
       inkscape:connector-curvature="0" />
    <path
       d="m 145.98269,74.253578 q -4.43359,0 -7.08984,-2.792969 -2.63672,-2.8125 -2.63672,-7.441406 0,-5.039062 2.75391,-7.871094 2.7539,-2.832031 7.4414,-2.832031 4.47266,0 6.97266,2.753906 2.51953,2.753907 2.51953,7.636719 0,4.785156 -2.71484,7.675781 -2.69532,2.871094 -7.2461,2.871094 z m 0.23438,-18.242187 q -3.08594,0 -4.88281,2.109375 -1.79688,2.089843 -1.79688,5.78125 0,3.554687 1.81641,5.605468 1.8164,2.050782 4.86328,2.050782 3.10547,0 4.76562,-2.011719 1.67969,-2.011719 1.67969,-5.722656 0,-3.75 -1.67969,-5.78125 -1.66015,-2.03125 -4.76562,-2.03125 z"
       style="font-style:normal;font-variant:normal;font-weight:normal;font-stretch:normal;font-family:'Leelawadee UI';-inkscape-font-specification:'Leelawadee UI';fill:#fed136;fill-opacity:1"
       id="path3807"
       inkscape:connector-curvature="0" />
    <path
       d="m 174.69363,72.866859 q -2.30469,1.386719 -5.46875,1.386719 -4.27734,0 -6.91406,-2.773437 -2.61719,-2.792969 -2.61719,-7.226563 0,-4.941406 2.83203,-7.929687 2.83203,-3.007813 7.5586,-3.007813 2.63671,0 4.64843,0.976563 v 3.28125 q -2.22656,-1.5625 -4.76562,-1.5625 -3.06641,0 -5.03906,2.207031 -1.95313,2.1875 -1.95313,5.761719 0,3.515625 1.83594,5.546875 1.85547,2.03125 4.96094,2.03125 2.61718,0 4.92187,-1.738282 z"
       style="font-style:normal;font-variant:normal;font-weight:normal;font-stretch:normal;font-family:'Leelawadee UI';-inkscape-font-specification:'Leelawadee UI';fill:#fed136;fill-opacity:1"
       id="path3809"
       inkscape:connector-curvature="0" />
  </g>
</svg>
